<svg id="Layer_1" xmlns="http://www.w3.org/2000/svg" width="25" height="25" viewBox="0 0 25 25">
  <g>
    <path d="M12.5,9.7916A2.7084,2.7084,0,1,0,15.2083,12.5,2.7083,2.7083,0,0,0,12.5,9.7916Z" fill="#fff"/>
    <path d="M18.834,7.7081a2.6915,2.6915,0,0,0-1.5421-1.542,4.4959,4.4959,0,0,0-1.5087-.28c-.8567-.0391-1.1138-.0474-3.2832-.0474s-2.4265.0083-3.2832.0474a4.4959,4.4959,0,0,0-1.5087.28A2.6915,2.6915,0,0,0,6.166,7.7081a4.4973,4.4973,0,0,0-.28,1.5087c-.0392.8567-.0474,1.1137-.0474,3.2832s.0082,2.4265.0474,3.2832a4.4973,4.4973,0,0,0,.28,1.5087,2.6915,2.6915,0,0,0,1.5421,1.542,4.4966,4.4966,0,0,0,1.5087.28c.8567.0392,1.1135.0474,3.2832.0474s2.4265-.0082,3.2832-.0474a4.4966,4.4966,0,0,0,1.5087-.28,2.6915,2.6915,0,0,0,1.5421-1.542,4.5011,4.5011,0,0,0,.28-1.5087c.039-.8567.0473-1.1138.0473-3.2832s-.0083-2.4265-.0473-3.2832A4.5011,4.5011,0,0,0,18.834,7.7081ZM12.5,16.6723A4.1723,4.1723,0,1,1,16.6724,12.5,4.1724,4.1724,0,0,1,12.5,16.6723Zm4.3372-7.5345a.975.975,0,1,1,.9749-.975A.975.975,0,0,1,16.8372,9.1378Z" fill="#fff"/>
    <path d="M0,0V25H25V0ZM20.5762,15.85a5.9687,5.9687,0,0,1-.3777,1.9723,4.1556,4.1556,0,0,1-2.3762,2.3762,5.9643,5.9643,0,0,1-1.9724.3777c-.8665.04-1.1434.0489-3.35.0489s-2.4833-.0093-3.35-.0489a5.9648,5.9648,0,0,1-1.9724-.3777,4.1556,4.1556,0,0,1-2.3762-2.3762A5.9687,5.9687,0,0,1,4.4238,15.85c-.04-.8666-.0488-1.1433-.0488-3.35s.0093-2.4833.0488-3.35a5.9682,5.9682,0,0,1,.3777-1.9723A4.1562,4.1562,0,0,1,7.1777,4.8015,5.9651,5.9651,0,0,1,9.15,4.4239c.8666-.04,1.1434-.0489,3.35-.0489s2.4834.0093,3.35.0489a5.9645,5.9645,0,0,1,1.9724.3776,4.1562,4.1562,0,0,1,2.3762,2.3763A5.9682,5.9682,0,0,1,20.5762,9.15c.04.8666.0488,1.1432.0488,3.35S20.6157,14.9833,20.5762,15.85Z" fill="#fff"/>
  </g>
</svg>
