<svg id="Layer_1" xmlns="http://www.w3.org/2000/svg" width="25" height="25" viewBox="0 0 25 25">
  <path d="M0,0V25H25V0ZM18.9614,9.1861q.01.2144.01.4313A9.4815,9.4815,0,0,1,4.375,17.6052a6.7767,6.7767,0,0,0,.7953.0465,6.6894,6.6894,0,0,0,4.1405-1.4271,3.3371,3.3371,0,0,1-3.1144-2.3153,3.3421,3.3421,0,0,0,1.5056-.0571,3.336,3.336,0,0,1-2.6744-3.2691l0-.0419a3.3191,3.3191,0,0,0,1.51.417,3.3376,3.3376,0,0,1-1.0319-4.451,9.4652,9.4652,0,0,0,6.8717,3.4833A3.336,3.336,0,0,1,18.0591,6.95a6.6724,6.6724,0,0,0,2.1169-.8091A3.3426,3.3426,0,0,1,18.71,7.9852,6.6643,6.6643,0,0,0,20.625,7.46,6.7773,6.7773,0,0,1,18.9614,9.1861Z" fill="#fff"/>
</svg>
