<?xml version="1.0" encoding="utf-8"?><svg xmlns="http://www.w3.org/2000/svg" xmlns:xlink="http://www.w3.org/1999/xlink"><symbol id="facebook" viewBox="0 0 25 25" xmlns="http://www.w3.org/2000/svg"><path d="M0 0v25h25V0Zm16.72 7.072-1.53.001c-1.2 0-1.432.57-1.432 1.406v1.845h2.861l-.373 2.889h-2.488v7.412h-2.983v-7.412H8.28v-2.89h2.495v-2.13a3.48 3.48 0 0 1 3.715-3.818 20.46 20.46 0 0 1 2.23.114Z" fill="currentColor"/></symbol><symbol id="instagram" viewBox="0 0 25 25" xmlns="http://www.w3.org/2000/svg"><g><path d="M12.5 9.792a2.708 2.708 0 1 0 2.708 2.708A2.708 2.708 0 0 0 12.5 9.792Z" fill="currentColor"/><path d="M18.834 7.708a2.692 2.692 0 0 0-1.542-1.542 4.496 4.496 0 0 0-1.509-.28c-.857-.039-1.114-.047-3.283-.047s-2.426.008-3.283.047a4.496 4.496 0 0 0-1.509.28 2.692 2.692 0 0 0-1.542 1.542 4.497 4.497 0 0 0-.28 1.509c-.04.856-.047 1.113-.047 3.283s.008 2.426.047 3.283a4.497 4.497 0 0 0 .28 1.509 2.692 2.692 0 0 0 1.542 1.542 4.497 4.497 0 0 0 1.509.28c.856.04 1.113.047 3.283.047s2.426-.008 3.283-.047a4.497 4.497 0 0 0 1.509-.28 2.692 2.692 0 0 0 1.542-1.542 4.501 4.501 0 0 0 .28-1.509c.039-.856.047-1.114.047-3.283s-.008-2.426-.047-3.283a4.501 4.501 0 0 0-.28-1.509ZM12.5 16.672a4.172 4.172 0 1 1 4.172-4.172 4.172 4.172 0 0 1-4.172 4.172Zm4.337-7.534a.975.975 0 1 1 .975-.975.975.975 0 0 1-.975.975Z" fill="currentColor"/><path d="M0 0v25h25V0Zm20.576 15.85a5.969 5.969 0 0 1-.378 1.972 4.156 4.156 0 0 1-2.376 2.376 5.964 5.964 0 0 1-1.972.378c-.867.04-1.144.05-3.35.05s-2.483-.01-3.35-.05a5.965 5.965 0 0 1-1.973-.378 4.156 4.156 0 0 1-2.376-2.376 5.969 5.969 0 0 1-.377-1.972c-.04-.867-.049-1.143-.049-3.35s.01-2.483.049-3.35A5.968 5.968 0 0 1 4.8 7.178 4.156 4.156 0 0 1 7.178 4.8a5.965 5.965 0 0 1 1.972-.377c.867-.04 1.143-.049 3.35-.049s2.483.01 3.35.049a5.965 5.965 0 0 1 1.972.377A4.156 4.156 0 0 1 20.2 7.178a5.968 5.968 0 0 1 .377 1.972c.04.867.049 1.143.049 3.35s-.01 2.483-.049 3.35Z" fill="currentColor"/></g></symbol><symbol id="linkedin" viewBox="0 0 25 25" xmlns="http://www.w3.org/2000/svg"><path d="M0 0v25h25V0Zm8.004 20.625H4.63V9.771h3.375ZM6.317 8.287A1.956 1.956 0 1 1 8.272 6.33a1.955 1.955 0 0 1-1.955 1.957Zm14.322 12.338h-3.37v-5.278c0-1.26-.025-2.878-1.754-2.878-1.756 0-2.023 1.37-2.023 2.787v5.369H10.12V9.771h3.236v1.482h.046A3.546 3.546 0 0 1 16.595 9.5c3.413 0 4.044 2.248 4.044 5.171Z" fill="currentColor"/></symbol><symbol id="twitter" viewBox="0 0 25 25" xmlns="http://www.w3.org/2000/svg"><path d="M0 0v25h25V0Zm18.961 9.186q.01.214.01.431a9.482 9.482 0 0 1-14.596 7.988 6.777 6.777 0 0 0 .795.047 6.69 6.69 0 0 0 4.14-1.427 3.337 3.337 0 0 1-3.114-2.316 3.342 3.342 0 0 0 1.506-.057 3.336 3.336 0 0 1-2.674-3.269v-.042a3.32 3.32 0 0 0 1.51.417 3.338 3.338 0 0 1-1.032-4.45 9.465 9.465 0 0 0 6.871 3.483A3.336 3.336 0 0 1 18.06 6.95a6.672 6.672 0 0 0 2.117-.81 3.343 3.343 0 0 1-1.466 1.845 6.664 6.664 0 0 0 1.915-.525 6.777 6.777 0 0 1-1.664 1.726Z" fill="currentColor"/></symbol></svg>